<svg width="101" height="35" viewBox="0 0 101 35" fill="none" xmlns="http://www.w3.org/2000/svg">
<path fill-rule="evenodd" clip-rule="evenodd" d="M20.6424 11H15.4424V34.3684H20.6424V11ZM5.35758 21.5789C5.42806 21.1217 5.80457 20.4246 6.93333 20.4737C8.44016 20.4246 8.50291 21.3752 8.50909 21.7368H13.7091C13.2092 17.1293 9.25578 16.2105 6.93333 16.2105C3.35724 16.2105 0.219632 18.5236 0.157576 22.2105C0.219632 24.5438 2.1022 26.033 4.41212 26.7895C5.06339 27.0423 5.63603 27.2511 6.13561 27.4333C8.14822 28.1671 8.97519 28.4687 8.98182 29.4737C8.97355 30.2788 8.03227 30.7858 7.09091 30.7368C6.93411 30.7858 5.39668 30.7858 5.2 29.1579H0C0.470641 33.7959 4.4554 35 7.09091 35C10.9501 35 14.1818 32.7186 14.1818 28.8421C14.1818 25.0508 11.0442 24.1636 8.03636 23.3158C6.71447 22.9278 5.42806 22.3891 5.35758 21.5789ZM23.0061 11H28.2061V14.9474H23.0061V11ZM28.2061 16.8421H23.0061V34.3684H28.2061V16.8421ZM43.8061 34.3684H48.8485V11H43.6485V18.4211C43.0401 17.7758 41.5565 16.256 38.4485 16.2105C34.0119 16.256 29.7818 19.6439 29.7818 25.5263C29.7818 30.8839 33.2543 35 38.6061 35C42.0931 35 43.3558 33.2586 43.8061 32.4737V34.3684ZM34.9818 25.5263C34.9818 28.1601 36.8962 29.9474 39.3939 29.9474C40.5993 29.9474 41.7607 29.4455 42.5454 28.6842C43.3925 27.8151 43.8632 26.6864 43.806 25.3684C43.8005 24.1467 43.2983 23.0806 42.5454 22.3684C41.7291 21.5442 40.6307 21.1053 39.3939 21.1053C36.3939 21.1053 34.9818 23.4569 34.9818 25.5263ZM55.4667 27.4211C55.6943 29.3186 57.451 30.5566 59.5636 30.5789C61.1529 30.5566 62.0316 29.8265 62.7151 28.8421H67.9151C67.1454 30.8739 65.9219 32.3974 64.4485 33.4211C63.004 34.4604 61.2786 35 59.5636 35C54.5019 35 50.2667 30.9056 50.2667 25.6842C50.2667 20.7491 54.0941 16.2105 59.4061 16.2105C62.0629 16.2105 64.3532 17.2579 66.0242 19.0526C68.1806 21.3839 68.8394 24.2087 68.3879 27.4211H55.4667ZM59.4061 20.6316C62.1383 20.6316 63.2184 22.634 63.3455 23.4737H55.4667C55.5936 22.634 56.6738 20.6316 59.4061 20.6316ZM75.9515 20.4737C77.4583 20.4246 77.521 21.3752 77.5273 21.7368H82.7273C82.2275 17.1293 78.2741 16.2105 75.9515 16.2105C72.3753 16.2105 69.2378 18.5236 69.1758 22.2105C69.2378 24.5438 71.1204 26.033 73.4303 26.7895C74.0816 27.0423 74.6542 27.2511 75.1538 27.4333C77.1664 28.1671 77.9933 28.4687 78 29.4737C77.9917 30.2788 77.0504 30.7858 76.1091 30.7368C75.9522 30.7858 74.4148 30.7858 74.2182 29.1579H69.0182C69.4888 33.7959 73.4735 35 76.1091 35C79.9684 35 83.2 32.7186 83.2 28.8421C83.2 25.0508 80.0625 24.1635 77.0546 23.3158C75.7327 22.9278 74.4463 22.3891 74.3758 21.5789C74.4463 21.1217 74.8228 20.4246 75.9515 20.4737Z" fill="#1B1B1B"/>
<path opacity="0.9" d="M92 18C96.9706 18 101 13.9706 101 9C101 4.02944 96.9706 0 92 0C87.0294 0 83 4.02944 83 9C83 13.9706 87.0294 18 92 18Z" fill="#F25022"/>
<path d="M91.9819 13.1094C91.5236 13.1094 91.1108 13.0182 90.7437 12.8359C90.3765 12.6536 90.0822 12.4036 89.8608 12.0859C89.6395 11.7682 89.5184 11.4062 89.4976 11H90.4351C90.4715 11.362 90.6356 11.6615 90.9272 11.8984C91.2215 12.1328 91.5731 12.25 91.9819 12.25C92.3101 12.25 92.6017 12.1732 92.8569 12.0195C93.1147 11.8659 93.3166 11.6549 93.4624 11.3867C93.6108 11.1159 93.6851 10.8099 93.6851 10.4688C93.6851 10.1198 93.6082 9.80859 93.4546 9.53516C93.3035 9.25911 93.0952 9.04167 92.8296 8.88281C92.564 8.72396 92.2606 8.64323 91.9194 8.64062C91.6746 8.63802 91.4233 8.67578 91.1655 8.75391C90.9077 8.82943 90.6955 8.92708 90.5288 9.04688L89.6226 8.9375L90.1069 5H94.2632V5.85938H90.9194L90.6382 8.21875H90.6851C90.8491 8.08854 91.0549 7.98047 91.3022 7.89453C91.5496 7.80859 91.8075 7.76563 92.0757 7.76563C92.5653 7.76563 93.0015 7.88281 93.3843 8.11719C93.7697 8.34896 94.0718 8.66667 94.2905 9.07031C94.5119 9.47396 94.6226 9.9349 94.6226 10.4531C94.6226 10.9635 94.508 11.4193 94.2788 11.8203C94.0522 12.2188 93.7397 12.5339 93.3413 12.7656C92.9429 12.9948 92.4897 13.1094 91.9819 13.1094Z" fill="white"/>
</svg>
